
<svg viewBox="0 0 1440 320" xmlns="http://www.w3.org/2000/svg" preserveAspectRatio="none">
  <defs>
    <linearGradient id="grad" x1="0%" y1="0%" x2="100%" y2="100%">
      <stop offset="0%" style="stop-color:#ff9a9e; stop-opacity:1" />
      <stop offset="100%" style="stop-color:#fad0c4; stop-opacity:1" />
    </linearGradient>
  </defs>
  <path fill="url(#grad)" fill-opacity="1" d="M0,160L80,160C160,160,320,160,480,176C640,192,800,224,960,218.7C1120,213,1280,171,1360,149.3L1440,128L1440,0L1360,0C1280,0,1120,0,960,0C800,0,640,0,480,0C320,0,160,0,80,0L0,0Z"></path>
  <path fill="#ffffff" fill-opacity="0.3" d="M0,96L80,122.7C160,149,320,203,480,208C640,213,800,171,960,149.3C1120,128,1280,128,1360,128L1440,128L1440,320L1360,320C1280,320,1120,320,960,320C800,320,640,320,480,320C320,320,160,320,80,320L0,320Z"></path>
</svg>
