
<svg viewBox="0 0 1440 320" xmlns="http://www.w3.org/2000/svg">
  <defs>
    <linearGradient id="grad1" x1="0%" y1="0%" x2="100%" y2="100%">
      <stop offset="0%" style="stop-color:#a18cd1; stop-opacity:1" />
      <stop offset="100%" style="stop-color:#fbc2eb; stop-opacity:1" />
    </linearGradient>
  </defs>
  <path fill="url(#grad1)" fill-opacity="1" d="M0,96L60,128C120,160,240,224,360,218.7C480,213,600,139,720,122.7C840,107,960,149,1080,160C1200,171,1320,149,1380,138.7L1440,128L1440,320L1380,320C1320,320,1200,320,1080,320C960,320,840,320,720,320C600,320,480,320,360,320C240,320,120,320,60,320L0,320Z"></path>
  <path fill="#ffffff" fill-opacity="0.3" d="M0,160L60,165.3C120,171,240,181,360,165.3C480,149,600,107,720,117.3C840,128,960,192,1080,186.7C1200,181,1320,107,1380,69.3L1440,32L1440,0L1380,0C1320,0,1200,0,1080,0C960,0,840,0,720,0C600,0,480,0,360,0C240,0,120,0,60,0L0,0Z"></path>
</svg>
